<?xml version="1.0" standalone="no"?>
<!DOCTYPE svg PUBLIC "-//W3C//DTD SVG 20010904//EN"
 "http://www.w3.org/TR/2001/REC-SVG-20010904/DTD/svg10.dtd">
<svg version="1.0" xmlns="http://www.w3.org/2000/svg"
 width="960.000000pt" height="960.000000pt" viewBox="0 0 960.000000 960.000000"
 preserveAspectRatio="xMidYMid meet">
<metadata>
Created by potrace 1.16, written by Peter Selinger 2001-2019
</metadata>
<g transform="translate(0.000000,960.000000) scale(0.100000,-0.100000)"
fill="#000000" stroke="none">
<path d="M0 8730 c0 -871 0 -871 20 -860 11 6 25 8 32 4 7 -5 9 3 5 27 -6 32
-4 35 31 52 27 12 45 15 67 9 35 -10 48 -42 17 -42 -18 0 -32 -18 -32 -41 0
-5 6 -9 14 -9 8 0 22 -9 30 -21 8 -12 19 -18 25 -15 20 13 29 -17 34 -124 2
-44 6 -55 20 -58 15 -3 18 3 16 40 -3 53 5 68 35 68 15 0 26 7 29 20 5 20 30
26 61 14 25 -10 19 -22 -14 -29 -16 -4 -29 -10 -28 -13 1 -4 -2 -18 -6 -30 -6
-18 -2 -30 15 -48 30 -32 54 -30 96 6 27 24 38 28 49 20 7 -7 12 -16 11 -21
-1 -5 9 -15 23 -22 32 -16 40 -57 11 -57 -32 0 -26 -39 12 -83 23 -27 38 -36
50 -31 9 3 18 11 18 18 1 6 3 21 4 32 6 54 32 58 40 7 3 -21 9 -52 14 -69 5
-18 4 -38 -1 -48 -7 -13 -5 -21 9 -31 21 -16 43 -3 43 26 0 16 8 19 58 19 68
0 122 -22 122 -50 0 -28 19 -34 40 -15 13 12 27 15 46 11 20 -5 30 -2 41 14
14 20 43 25 77 11 17 -7 14 -11 -22 -31 -62 -35 -53 -52 27 -54 34 -1 53 -8
69 -24 16 -16 34 -22 67 -22 38 0 47 4 62 28 10 15 20 29 24 32 3 3 19 25 34
50 27 43 56 72 64 65 2 -2 -13 -38 -33 -79 -20 -42 -36 -79 -36 -82 0 -19 -57
-94 -71 -94 -9 0 -29 -7 -45 -14 -15 -8 -31 -13 -36 -10 -4 3 -8 -5 -8 -16 0
-14 5 -20 13 -17 8 3 25 -9 38 -25 13 -17 38 -47 55 -67 46 -53 123 -207 135
-271 11 -56 40 -122 67 -153 17 -19 17 -21 32 -187 5 -63 17 -136 26 -163 9
-26 13 -58 10 -72 -4 -14 -2 -33 3 -42 31 -57 43 -625 27 -1198 -8 -268 -7
-304 8 -339 10 -24 16 -67 16 -116 0 -42 4 -100 9 -127 11 -55 26 -367 23
-456 -1 -37 4 -69 14 -88 22 -44 54 -175 54 -225 0 -24 7 -65 16 -91 25 -72
42 -144 50 -204 3 -30 15 -73 25 -96 11 -23 19 -48 19 -55 0 -8 7 -23 15 -35
8 -11 21 -45 29 -75 8 -29 22 -73 31 -98 9 -25 20 -61 25 -80 8 -39 16 -60 53
-140 14 -30 28 -71 32 -92 4 -20 15 -45 25 -56 17 -18 36 -51 103 -175 15 -28
38 -63 50 -77 13 -14 40 -51 60 -82 20 -32 48 -65 62 -74 13 -9 35 -32 47 -53
40 -65 107 -153 133 -173 14 -11 41 -43 60 -71 48 -74 60 -85 156 -155 47 -34
129 -104 182 -155 65 -65 109 -99 141 -111 54 -21 176 -111 262 -193 7 -7 16
-13 21 -13 4 0 21 -12 37 -27 16 -15 81 -53 145 -85 63 -32 122 -65 131 -72 8
-7 55 -34 103 -60 49 -25 100 -54 113 -65 13 -10 38 -22 56 -25 18 -3 57 -24
86 -46 29 -22 55 -40 57 -40 3 0 25 -15 50 -34 24 -19 59 -37 76 -41 17 -4 51
-22 75 -40 23 -18 89 -56 146 -85 57 -28 122 -63 144 -78 83 -54 199 -163 234
-221 48 -79 89 -131 103 -131 13 0 76 70 118 130 13 19 62 76 108 125 67 71
93 92 125 100 43 11 136 67 197 119 39 34 85 62 139 86 19 8 70 43 113 77 43
35 84 63 91 63 7 0 24 9 37 21 32 28 91 58 148 75 69 20 238 109 290 153 25
21 69 50 96 65 82 44 122 70 141 92 22 24 88 76 164 129 30 21 78 60 105 86
28 26 62 57 76 68 15 11 42 35 61 53 19 18 54 46 77 62 24 16 56 46 71 68 16
21 46 53 67 69 43 35 96 98 133 159 14 23 57 81 97 128 40 48 80 103 90 122
10 19 36 57 58 85 93 117 335 536 335 580 0 8 9 32 20 52 11 21 20 49 20 62 0
13 11 47 24 75 14 28 32 78 41 111 9 33 21 69 26 80 6 12 14 45 19 75 10 59
25 138 41 210 11 49 27 152 34 215 2 22 9 74 15 115 6 41 12 158 15 260 2 108
10 212 18 250 11 50 13 88 6 165 -5 55 -9 165 -8 245 1 80 3 195 3 255 1 118
-18 404 -33 495 -5 30 -5 86 -1 125 11 94 12 218 1 282 -12 75 8 700 23 738
12 28 77 231 92 285 4 13 17 33 31 43 14 11 22 27 21 40 -7 56 88 232 125 232
10 0 22 7 27 15 7 11 2 19 -23 30 -20 10 -36 26 -42 46 -12 38 -89 148 -132
189 -17 16 -41 55 -53 85 -23 60 -39 85 -118 183 -58 72 -79 84 -120 69 -15
-6 -78 -18 -141 -27 -63 -8 -117 -18 -121 -20 -12 -7 -153 -35 -255 -50 -55
-8 -111 -17 -125 -21 -14 -3 -159 -9 -323 -11 -242 -4 -314 -2 -390 10 -50 9
-126 21 -167 28 -104 15 -220 43 -331 78 -52 16 -118 34 -147 41 -28 7 -54 16
-57 20 -3 5 -22 14 -43 21 -42 13 -146 72 -179 101 -11 11 -36 25 -55 32 -45
16 -108 60 -175 124 -30 28 -89 75 -131 103 -42 27 -92 71 -111 97 -20 26 -43
54 -52 62 -8 8 -39 56 -69 105 -30 50 -61 99 -71 110 -24 28 -49 81 -49 102 0
10 -13 43 -29 73 -16 30 -27 60 -24 67 3 8 -3 13 -15 13 -14 0 -26 13 -40 43
-11 24 -27 49 -36 56 -14 12 -18 7 -35 -32 -12 -28 -31 -52 -48 -60 -32 -17
-103 -94 -120 -129 -6 -12 -15 -35 -22 -50 -6 -16 -15 -28 -21 -28 -6 0 -9 -4
-6 -9 4 -5 -3 -7 -14 -4 -11 3 -20 0 -20 -6 0 -6 7 -11 16 -11 29 0 11 -41
-77 -180 -93 -148 -209 -279 -310 -351 -34 -24 -78 -58 -96 -75 -19 -17 -46
-37 -61 -45 -15 -7 -43 -25 -62 -39 -90 -66 -278 -165 -370 -194 -30 -10 -82
-31 -116 -47 -34 -16 -66 -29 -73 -29 -6 0 -44 -12 -84 -26 -141 -49 -359 -73
-726 -78 -139 -1 -272 1 -295 6 -22 4 -89 15 -147 23 -58 7 -129 21 -158 30
-54 18 -60 30 -42 77 5 13 7 46 4 72 l-6 48 -44 -7 c-28 -4 -49 -2 -58 5 -10
9 -19 9 -35 0 -37 -20 -69 27 -38 58 17 17 38 15 38 -3 0 -20 26 -19 34 1 3 9
6 33 6 55 0 34 -3 39 -24 39 -17 0 -26 -7 -30 -26 -6 -21 -11 -24 -29 -18 -12
4 -29 6 -37 5 -8 0 -30 -2 -47 -2 -18 -1 -33 -5 -33 -10 0 -19 -21 -8 -32 16
-6 14 -20 25 -30 25 -16 0 -18 -5 -13 -32 3 -18 1 -39 -4 -47 -13 -21 -41 -5
-41 23 0 15 -7 25 -20 29 -21 5 -29 51 -10 62 6 3 10 16 10 27 0 20 1 20 18 5
14 -13 21 -14 30 -5 9 9 12 7 12 -10 0 -16 6 -22 21 -22 31 0 49 24 49 64 0
25 4 36 15 36 8 0 24 9 36 21 12 12 27 18 39 14 10 -3 21 -1 25 5 3 5 19 10
34 10 20 0 34 8 46 26 13 20 23 25 43 21 14 -3 32 -3 39 0 22 9 14 39 -14 52
-23 10 -30 9 -55 -9 l-28 -20 -65 30 c-66 31 -84 57 -45 67 16 4 20 14 20 52
0 26 6 56 14 66 13 18 15 18 48 2 48 -23 56 -35 60 -92 3 -47 5 -50 28 -47 14
1 36 3 50 5 17 1 25 8 24 20 -1 9 2 17 7 17 5 0 9 -6 9 -14 0 -26 49 -5 64 28
21 44 22 67 8 102 -28 67 0 118 55 98 24 -8 28 -16 31 -52 3 -46 7 -49 39 -27
l21 15 -20 56 c-22 61 -18 77 11 50 12 -11 27 -15 40 -11 19 6 19 5 5 -33 -14
-35 -14 -42 0 -75 18 -45 46 -50 46 -9 0 24 7 32 42 48 67 30 84 89 32 113
-18 8 -31 8 -45 1 -10 -6 -19 -8 -19 -4 0 4 -9 -1 -19 -10 -11 -10 -22 -13
-25 -8 -11 18 6 42 33 48 46 10 101 37 101 49 0 7 13 15 30 19 36 7 41 39 10
56 -24 13 -26 33 -5 50 20 17 45 -3 45 -36 0 -23 2 -24 58 -18 84 8 84 8 80
56 -3 48 -19 58 -45 29 -25 -30 -35 -26 -56 17 -17 35 -17 42 -4 75 13 29 22
37 51 42 41 8 56 1 56 -26 0 -14 7 -19 30 -19 35 0 40 19 10 38 -11 7 -20 19
-20 26 0 8 -10 18 -22 22 -26 8 -108 87 -108 104 0 19 32 60 46 60 8 0 14 10
14 24 0 13 6 29 14 35 7 6 19 32 26 56 12 44 14 45 49 43 44 -4 52 20 26 69
l-18 33 -536 0 c-481 -1 -534 -2 -516 -16 11 -8 33 -14 48 -12 15 2 31 -2 35
-7 4 -6 19 -11 34 -12 14 -1 43 -12 65 -26 29 -18 50 -23 88 -22 76 4 97 -21
45 -52 -16 -9 -30 -23 -30 -29 0 -18 -24 -23 -77 -18 -92 9 -151 8 -166 -4 -8
-7 -22 -37 -32 -67 -9 -30 -21 -53 -26 -49 -5 3 -6 -1 -3 -9 3 -8 -6 -21 -20
-31 -34 -22 -33 -42 4 -61 26 -14 32 -14 64 2 20 9 39 14 42 10 12 -12 -6 -56
-26 -62 -14 -4 -20 -15 -20 -35 0 -49 -9 -60 -51 -60 -21 0 -39 5 -39 10 0 6
5 10 11 10 8 0 39 57 39 72 0 2 -20 2 -45 0 -37 -3 -49 -10 -66 -34 -29 -39
-37 -109 -15 -127 12 -10 23 -11 48 -2 24 9 33 8 40 -1 17 -28 8 -46 -26 -52
-26 -5 -36 -12 -38 -29 -2 -16 -11 -23 -30 -25 -41 -5 -37 -37 7 -53 19 -7 37
-19 39 -26 3 -7 -8 -36 -25 -64 -47 -80 -24 -137 38 -94 20 14 22 14 28 -5 12
-37 -11 -60 -61 -60 -42 0 -46 -2 -60 -35 -18 -44 -18 -45 6 -45 11 0 20 -4
20 -9 0 -18 99 -50 137 -44 32 5 39 3 60 -23 12 -16 23 -23 23 -16 0 7 12 12
28 12 29 -1 28 -2 -28 -40 -12 -8 -28 -21 -36 -27 -7 -7 -20 -13 -28 -13 -9 0
-16 -4 -16 -10 0 -5 -7 -10 -15 -10 -8 0 -19 -9 -25 -20 -20 -37 -80 -20 -80
22 0 24 -45 41 -84 32 -43 -10 -89 -6 -101 9 -23 28 -186 50 -200 27 -3 -5 9
-13 27 -18 26 -6 33 -13 33 -33 0 -20 -7 -26 -44 -35 l-43 -10 41 -48 41 -47
0 30 c0 17 5 31 10 31 6 0 10 7 10 15 0 8 5 15 11 15 6 0 17 -7 25 -15 9 -8
11 -15 5 -15 -6 0 -11 -9 -11 -20 0 -13 7 -20 20 -20 15 0 20 -7 20 -29 0 -36
9 -61 22 -61 5 0 17 -7 25 -16 10 -9 26 -14 41 -11 14 3 32 3 39 0 18 -7 16
-60 -3 -67 -10 -4 -13 -13 -9 -25 3 -11 1 -22 -5 -26 -5 -3 -11 -1 -11 4 -1 6
-2 15 -3 21 -2 18 -23 31 -39 24 -9 -3 -14 -10 -11 -15 3 -5 7 -28 8 -50 4
-51 13 -59 36 -31 15 18 23 21 42 13 13 -6 56 -17 97 -26 80 -17 91 -14 91 32
0 30 18 39 38 19 14 -13 14 -20 4 -36 -25 -41 -10 -60 49 -60 16 0 29 5 29 11
0 5 5 7 11 4 6 -4 8 -13 5 -20 -3 -10 13 -13 67 -13 107 0 145 -3 123 -9 -13
-3 -15 -7 -7 -12 8 -5 -6 -15 -36 -26 -118 -45 -181 -109 -248 -252 -11 -24
-24 -43 -28 -43 -4 0 -7 21 -6 46 2 25 -2 49 -8 52 -6 4 -20 22 -31 40 -24 41
-19 74 12 67 126 -29 143 -23 162 51 15 58 9 64 -57 59 -57 -3 -69 -10 -69
-36 0 -13 -7 -19 -22 -20 -13 0 -35 -2 -50 -3 -22 -1 -27 2 -23 15 7 21 -4 29
-47 34 -36 5 -58 -9 -58 -36 0 -11 -6 -19 -13 -19 -14 0 -37 54 -37 88 0 23
-14 29 -25 12 -10 -16 -55 -12 -55 5 0 21 -23 19 -67 -5 -21 -11 -33 -20 -28
-20 6 0 3 -5 -5 -10 -12 -7 -12 -12 -3 -21 18 -18 -3 -39 -38 -39 -24 0 -29 4
-29 24 0 14 -4 28 -10 31 -5 3 -10 13 -10 21 0 10 12 14 45 12 53 -2 53 -2 57
37 3 26 -1 30 -27 35 -20 3 -31 12 -33 26 -2 16 -9 20 -35 18 -37 -3 -67 11
-67 30 0 18 -72 14 -78 -4 -3 -9 4 -11 24 -8 28 4 29 2 26 -30 -4 -27 -11 -36
-33 -44 -16 -5 -29 -17 -29 -26 0 -12 -5 -11 -21 7 -25 26 -66 25 -61 -1 4
-27 -13 -22 -26 7 -7 15 -20 25 -32 25 -26 0 -60 -17 -60 -30 0 -15 33 -50 47
-50 7 0 13 -4 13 -9 0 -25 -115 -18 -124 7 -3 10 -14 31 -25 48 -35 57 -39
194 -6 194 7 0 15 6 17 12 4 10 8 9 20 -2 8 -8 13 -21 10 -28 -2 -8 4 -31 13
-53 15 -32 23 -39 46 -39 34 0 42 11 30 43 -12 30 -4 67 14 67 19 0 25 -25 19
-74 -6 -38 -4 -46 15 -55 16 -9 27 -8 50 4 16 8 33 20 36 25 9 15 -13 40 -35
40 -24 0 -39 21 -30 45 11 32 0 55 -37 70 -19 8 -32 19 -28 25 3 6 -4 10 -17
10 -38 0 -68 -12 -68 -26 0 -7 -10 -20 -22 -28 -19 -14 -24 -14 -38 -1 -18 16
-40 20 -40 7 0 -5 -18 -19 -40 -31 -38 -21 -42 -22 -65 -7 -13 9 -31 13 -39
10 -10 -4 -16 -1 -16 9 0 10 6 13 21 10 18 -5 20 -3 14 16 -3 11 -2 21 3 21 6
0 13 11 16 25 4 14 17 30 29 35 12 5 33 18 46 28 28 22 23 52 -8 52 -20 0 -33
14 -38 40 -4 23 28 143 44 161 13 15 18 59 7 59 -17 0 -43 -22 -38 -33 3 -8
-6 -19 -21 -25 -42 -19 -55 -15 -55 17 0 45 -43 51 -51 7 -2 -12 -16 -23 -33
-27 -36 -10 -53 8 -62 64 -8 43 -27 67 -54 67 -27 0 -51 11 -45 20 3 5 -4 11
-15 15 -24 8 -26 30 -4 39 10 4 13 13 9 25 -4 14 0 21 15 26 12 4 22 5 24 3 1
-1 13 -19 27 -38 14 -19 28 -43 32 -52 5 -14 18 -18 58 -18 45 0 50 -2 39 -15
-14 -17 -2 -20 55 -16 48 4 59 20 31 42 -30 24 -42 24 -55 2 -11 -21 -15 -13
-26 47 -3 19 -8 49 -11 65 -7 38 32 81 82 91 49 9 57 3 61 -52 5 -70 9 -77 33
-64 11 6 22 21 26 34 3 13 16 29 30 36 13 8 24 19 24 27 0 7 7 13 15 13 20 0
21 -76 1 -83 -23 -9 -49 -73 -42 -102 7 -29 30 -32 82 -10 l35 14 -7 66 c-6
62 -6 65 15 65 14 0 21 -6 21 -19 0 -12 9 -21 25 -25 26 -7 34 -37 16 -65 -12
-19 11 -66 39 -81 11 -6 20 -8 20 -5 0 3 9 1 19 -5 17 -8 19 -18 14 -64 -5
-48 -3 -55 15 -60 30 -10 92 4 92 20 0 23 20 26 28 3 8 -21 9 -21 15 9 8 38
18 41 32 10 14 -32 49 -30 53 2 2 14 9 31 15 38 17 22 52 -40 37 -68 -9 -16
-8 -21 5 -26 23 -9 44 3 39 23 -6 26 8 42 44 49 25 5 33 3 38 -11 4 -10 1 -21
-7 -26 -42 -26 -44 -28 -31 -41 9 -9 15 -8 25 6 12 17 14 17 20 2 4 -9 17 -16
29 -16 24 1 112 39 91 40 -7 0 -12 10 -10 23 1 16 -6 26 -30 37 -21 10 -33 23
-35 40 -2 19 -12 26 -48 36 -25 7 -37 12 -28 13 11 1 15 6 12 16 -7 16 23 51
34 40 4 -4 1 -10 -5 -12 -22 -8 -15 -43 8 -43 19 0 21 4 15 38 -3 20 -6 51 -6
68 0 25 -6 34 -31 46 -23 12 -27 17 -15 21 23 9 20 25 -6 30 l-23 4 23 2 c18
1 22 7 22 35 0 21 -6 36 -15 40 -29 11 -14 33 33 47 41 12 47 17 44 39 -2 14
-5 32 -5 40 -1 9 16 23 41 34 39 18 55 36 31 36 -5 0 -7 5 -4 10 11 18 35 11
35 -10 0 -11 5 -20 11 -20 6 0 9 12 7 27 -2 22 -11 28 -50 40 -38 11 -49 19
-54 40 -4 14 -2 33 3 42 6 9 8 31 5 49 -3 24 -1 32 11 32 30 0 62 21 75 48 11
24 10 28 -10 44 -13 10 -17 18 -10 18 6 0 12 4 12 9 0 5 -8 8 -17 7 -10 0 -19
8 -22 22 -7 28 -24 30 -31 5 -10 -35 -45 -83 -64 -89 -24 -8 -70 40 -62 63 3
8 6 21 6 30 0 8 6 13 13 10 19 -7 61 22 81 56 17 30 18 31 32 13 10 -15 16
-16 27 -7 8 6 21 9 28 6 8 -2 25 4 39 15 25 19 22 20 -682 20 l-708 0 0 -870z
m2300 591 c0 -4 -5 -12 -12 -19 -6 -6 -12 -42 -12 -81 -1 -38 -7 -75 -14 -83
-8 -10 -9 -29 -4 -59 14 -80 11 -94 -25 -97 -22 -2 -39 -13 -59 -39 -25 -33
-28 -34 -35 -17 -14 35 -10 44 21 44 27 0 29 2 21 19 -12 21 -5 31 20 31 17 0
21 6 34 64 7 33 -16 66 -47 66 -10 0 -19 8 -19 18 -4 62 -3 67 18 77 16 7 28
26 38 62 l15 51 30 -15 c17 -8 30 -18 30 -22z m2479 -433 c17 -18 45 -62 63
-98 18 -36 42 -78 54 -95 12 -16 24 -39 28 -50 3 -11 31 -47 62 -80 31 -33 69
-78 84 -100 15 -22 49 -58 74 -80 26 -22 66 -58 89 -80 61 -57 92 -82 119 -96
12 -6 40 -27 60 -45 21 -19 52 -40 70 -48 18 -7 49 -28 67 -45 19 -17 53 -36
75 -42 23 -6 56 -19 75 -30 18 -11 74 -34 125 -51 50 -17 103 -39 118 -50 26
-18 92 -39 183 -58 22 -4 83 -19 135 -33 52 -14 133 -28 180 -30 47 -3 112
-14 145 -25 46 -16 100 -22 230 -26 94 -4 186 -11 206 -16 19 -5 48 -6 65 -2
42 11 74 4 85 -21 11 -24 85 -72 93 -59 2 4 7 24 11 44 8 40 26 53 55 38 24
-13 30 -13 30 3 0 28 78 57 181 67 56 5 107 14 113 19 6 5 27 11 46 13 19 3
64 13 98 22 52 14 69 15 93 6 41 -17 114 -99 129 -146 7 -21 28 -57 45 -79 18
-22 39 -53 48 -70 8 -16 36 -61 61 -100 28 -43 46 -81 46 -99 0 -26 -25 -83
-77 -181 -42 -77 -111 -291 -136 -420 -9 -44 -19 -163 -22 -265 -4 -102 -8
-234 -10 -295 -2 -60 -6 -123 -9 -138 -7 -34 28 -417 45 -497 18 -86 22 -1132
4 -1185 -7 -22 -16 -85 -19 -141 -4 -55 -11 -116 -17 -135 -6 -19 -15 -83 -20
-144 -5 -60 -14 -141 -19 -180 -5 -38 -14 -123 -20 -187 -5 -64 -16 -145 -24
-180 -16 -68 -102 -320 -185 -538 -53 -139 -159 -329 -237 -426 -22 -27 -58
-79 -79 -115 -21 -35 -53 -80 -70 -99 -17 -20 -46 -58 -65 -85 -106 -156 -341
-400 -529 -551 -13 -10 -43 -36 -65 -56 -23 -20 -64 -52 -91 -72 -138 -99
-341 -236 -350 -236 -4 0 -19 -9 -33 -19 -15 -10 -99 -56 -187 -101 -88 -46
-165 -86 -170 -91 -6 -4 -35 -17 -65 -29 -30 -11 -95 -50 -145 -85 -121 -87
-237 -164 -310 -204 -99 -55 -156 -99 -245 -191 -81 -83 -123 -110 -172 -110
-23 0 -78 57 -78 81 0 18 -65 89 -81 89 -6 0 -21 12 -33 27 -13 16 -41 37 -62
49 -22 11 -66 36 -99 54 -77 43 -317 170 -320 170 -5 0 -171 102 -184 114 -9
7 -43 27 -76 43 -236 118 -362 187 -394 216 -21 19 -78 53 -127 77 -59 28
-107 60 -144 95 -30 29 -73 65 -95 79 -68 45 -109 76 -140 107 -17 16 -34 29
-38 29 -28 0 -143 94 -235 192 -7 7 -55 55 -107 107 -52 51 -95 97 -95 102 0
6 -20 31 -44 57 -24 26 -55 68 -67 93 -24 47 -88 135 -134 185 -14 15 -25 33
-25 41 0 7 -22 37 -50 65 -27 28 -54 65 -59 82 -21 70 -54 152 -66 166 -8 9
-19 37 -25 64 -6 27 -21 67 -34 90 -13 22 -32 65 -41 95 -10 30 -30 80 -45
110 -15 31 -35 88 -44 126 -9 39 -23 93 -31 120 -7 28 -21 82 -30 120 -9 39
-23 97 -31 130 -8 33 -24 125 -34 205 -11 80 -24 163 -30 185 -5 22 -8 79 -7
126 1 64 -2 90 -13 104 -11 13 -15 46 -16 119 -1 56 -7 130 -13 166 -6 36 -11
148 -11 250 0 107 -5 204 -12 230 -16 62 -15 495 2 515 9 10 9 23 2 47 -6 18
-11 87 -11 153 0 66 -5 135 -10 153 -6 21 -6 54 0 91 5 32 8 76 8 97 -1 21 4
75 11 119 10 70 9 86 -5 125 -9 25 -21 74 -26 109 -5 36 -13 78 -18 95 -5 17
-12 49 -16 71 -6 38 -11 57 -36 143 -6 20 -29 78 -50 127 -21 50 -43 123 -49
162 -7 40 -16 76 -21 79 -15 9 -49 81 -49 103 0 22 38 48 49 34 33 -39 60 -84
71 -117 9 -28 15 -35 21 -25 5 8 9 23 9 34 1 33 25 55 59 55 26 0 31 4 31 25
0 22 -3 24 -31 18 -35 -7 -49 6 -49 46 0 25 -2 25 -96 6 -44 -10 -52 17 -20
66 20 29 33 38 58 41 37 3 52 35 24 50 -20 11 -21 38 -1 64 8 10 15 27 15 37
0 20 39 77 52 77 13 0 9 -65 -4 -79 -11 -10 -7 -11 17 -5 17 4 35 11 42 16 9
7 20 1 37 -19 24 -28 25 -28 54 -10 38 22 58 22 71 0 5 -10 11 -16 13 -13 36
46 47 87 28 106 -12 12 -17 81 -6 91 12 13 145 7 211 -9 45 -11 110 -14 260
-11 329 5 423 11 570 33 77 12 160 24 185 27 24 3 53 11 65 18 11 7 34 16 50
20 17 3 64 22 106 40 41 19 114 44 162 55 49 12 113 36 149 56 35 20 81 43
102 50 21 8 77 40 123 72 46 31 98 66 116 76 18 11 50 34 72 51 22 18 73 52
114 76 40 24 81 55 90 68 9 14 45 54 81 90 68 69 212 259 243 320 10 20 27 68
39 106 28 94 53 128 105 144 1 1 16 -14 32 -31z m-3769 -7 c0 -10 7 -24 15
-31 20 -17 19 -33 -2 -26 -31 10 -41 -8 -44 -74 -3 -69 -14 -87 -39 -66 -8 8
-24 16 -35 18 -26 4 -31 47 -10 88 9 18 19 30 22 27 8 -9 63 45 63 63 0 9 3
20 6 23 11 10 24 -3 24 -22z"/>
<path d="M4784 8716 c-3 -13 -1 -33 5 -44 6 -11 19 -60 30 -109 11 -49 27
-102 36 -119 17 -33 20 -101 5 -124 -8 -12 -10 -12 -11 5 l0 20 -9 -20 c-8
-19 -9 -19 -9 3 -1 27 -12 28 -41 4 -20 -16 -20 -19 -7 -31 9 -7 24 -14 34
-15 24 -4 31 -63 9 -72 -21 -8 -21 -54 -1 -54 17 0 19 -13 6 -57 -6 -20 -6
-35 0 -38 5 -4 9 -34 9 -69 0 -34 3 -66 7 -70 4 -3 8 -14 9 -24 1 -9 5 -26 9
-38 5 -16 -1 -26 -30 -45 -44 -30 -43 -55 5 -87 24 -16 36 -32 37 -50 1 -15 5
-56 8 -92 7 -61 6 -66 -19 -89 -33 -31 -33 -67 -3 -113 40 -58 41 -81 7 -107
-35 -25 -39 -59 -14 -121 13 -32 20 -39 35 -35 17 6 19 1 19 -52 0 -65 -3 -71
-42 -96 -43 -27 -34 -58 16 -61 25 -1 25 -6 28 -305 1 -193 1 -194 -23 -212
-18 -14 -33 -18 -61 -13 -30 5 -38 3 -38 -10 0 -12 10 -15 44 -14 31 2 51 -3
65 -16 20 -19 21 -21 24 -181 1 -55 6 -106 11 -114 5 -7 5 -59 2 -115 -6 -86
-5 -105 8 -116 23 -18 20 -29 -14 -62 -35 -33 -36 -38 -11 -65 16 -17 21 -48
32 -179 6 -88 12 -211 13 -275 1 -98 4 -120 19 -137 23 -25 16 -52 -19 -73
l-27 -17 23 -18 c50 -41 59 -54 71 -111 17 -77 79 -212 113 -243 23 -21 29
-22 37 -10 5 8 7 35 3 60 -3 25 -7 97 -9 161 -1 64 -5 121 -9 127 -3 5 -8 108
-12 228 -9 353 -21 654 -29 720 -6 47 -12 64 -27 71 -18 8 -20 25 -25 383 -3
206 -6 393 -6 415 4 310 1 723 -6 770 -7 46 -5 66 6 89 11 20 12 31 4 39 -6 6
-11 34 -11 62 0 28 -5 56 -10 61 -8 8 -7 20 0 39 8 21 8 48 1 95 -6 36 -13
127 -15 203 -4 121 -8 145 -30 194 -14 30 -26 72 -26 92 0 20 -8 50 -18 66
-11 17 -22 47 -26 68 -5 26 -14 41 -29 47 -31 12 -77 58 -77 76 0 15 -23 44
-34 44 -3 0 -8 -11 -12 -24z"/>
<path d="M7621 7737 c-6 -16 -11 -41 -11 -57 0 -29 -15 -40 -55 -40 -40 0 -56
-10 -46 -29 5 -9 10 -52 10 -96 0 -87 9 -105 36 -75 17 19 17 21 2 38 -21 23
-21 46 -1 77 30 46 86 26 99 -35 6 -29 10 -31 43 -28 l37 3 3 54 c3 44 -1 58
-19 77 -12 13 -25 40 -28 60 -4 22 -14 41 -26 48 -11 6 -23 15 -27 21 -4 5
-12 -3 -17 -18z"/>
<path d="M5625 7290 c-3 -5 -3 -21 1 -35 5 -19 2 -25 -10 -25 -9 0 -19 7 -22
15 -4 8 -11 15 -17 15 -6 0 -18 7 -28 16 -22 20 -39 10 -39 -22 0 -14 -7 -32
-15 -40 -17 -18 -20 -50 -5 -59 6 -3 10 -18 10 -33 0 -15 7 -38 16 -51 15 -21
22 -23 62 -17 l45 6 -7 -48 c-4 -26 -8 -59 -10 -74 -1 -14 -23 -51 -50 -82
-48 -57 -62 -94 -80 -213 -6 -40 9 -73 33 -73 4 0 14 -11 21 -25 12 -22 20
-25 72 -25 46 0 70 -6 104 -26 l44 -26 68 20 c78 23 119 23 132 2 7 -12 28
-15 97 -13 51 1 105 -3 128 -11 52 -17 286 -21 315 -6 41 22 53 73 58 253 5
178 -2 211 -32 164 -9 -13 -25 -49 -36 -78 l-19 -54 -1 68 c0 37 -4 67 -9 67
-11 0 -47 -72 -56 -112 -5 -19 -14 -28 -28 -28 -19 0 -19 4 -13 70 5 54 3 70
-7 70 -15 0 -57 -81 -57 -110 0 -10 -7 -26 -16 -34 -13 -14 -54 -16 -289 -16
-156 0 -276 4 -280 9 -8 14 -30 218 -30 286 0 42 6 72 22 102 18 34 21 52 16
97 -4 35 -11 56 -18 56 -7 0 -18 7 -25 15 -14 17 -36 20 -45 5z"/>
<path d="M2922 7268 c-7 -7 -12 -24 -12 -39 0 -15 -4 -29 -10 -31 -5 -1 -10
-32 -11 -68 -3 -84 18 -130 60 -130 41 0 59 26 62 95 5 103 1 135 -18 142 -10
4 -24 15 -31 25 -15 21 -24 22 -40 6z"/>
<path d="M2303 7142 c-3 -9 -11 -23 -17 -31 -23 -30 -36 -90 -36 -176 0 -49
-5 -121 -10 -159 -8 -54 -8 -71 2 -77 8 -5 12 -26 11 -56 -3 -63 15 -153 36
-177 36 -42 75 -48 240 -41 86 4 167 12 181 18 14 5 77 12 140 14 63 2 120 4
125 4 6 1 46 -3 90 -9 77 -10 178 -1 198 17 4 4 31 4 60 0 41 -5 60 -2 89 12
38 19 79 25 92 12 16 -17 59 -12 104 12 55 29 70 27 121 -17 23 -21 40 -28 56
-24 12 3 57 8 100 12 67 5 83 10 107 33 40 37 48 77 48 231 0 113 3 145 22
197 l21 62 -29 40 c-16 23 -37 55 -46 73 l-17 32 -20 -48 c-26 -58 -28 -85
-12 -158 7 -32 13 -92 14 -135 l2 -78 -76 -3 c-53 -2 -79 1 -86 10 -16 21 -31
69 -38 121 -5 40 -9 47 -29 47 -37 0 -106 -89 -106 -138 0 -41 -16 -43 -308
-40 -154 2 -284 7 -289 11 -4 5 -10 47 -13 94 -3 54 -9 88 -17 90 -21 7 -61
-69 -68 -129 l-6 -58 -279 0 c-256 0 -280 1 -288 18 -5 9 -12 94 -16 187 -3
94 -9 180 -12 192 -8 28 -33 38 -41 15z"/>
<path d="M4225 7060 l-39 -80 13 -147 c10 -121 27 -300 30 -310 1 -2 6 -3 12
-3 5 0 22 26 36 58 26 54 27 64 25 207 -1 150 -18 334 -30 347 -4 4 -25 -28
-47 -72z"/>
<path d="M7107 7013 c-23 -77 -25 -105 -11 -212 8 -60 0 -71 -53 -71 -37 0
-53 21 -53 69 0 33 -15 49 -24 25 -3 -8 -13 -45 -21 -82 -37 -160 -48 -176
-60 -94 -14 93 -78 242 -105 242 -4 0 -15 -25 -24 -55 -17 -54 -18 -146 -1
-251 6 -37 3 -45 -25 -78 -26 -29 -39 -36 -69 -36 -20 0 -42 5 -49 12 -8 8
-15 9 -22 2 -6 -6 2 -27 25 -59 23 -31 35 -60 35 -81 0 -23 8 -38 26 -53 36
-28 69 -26 102 7 32 31 89 152 94 197 2 23 9 31 27 33 28 4 40 -6 46 -38 10
-50 24 -54 191 -57 110 -2 162 1 177 10 12 6 51 12 86 12 l64 0 24 64 c21 57
23 75 19 175 -3 61 -9 125 -15 141 -5 17 -12 47 -16 68 -5 30 -10 37 -28 37
-44 -1 -96 -64 -128 -154 -17 -50 -18 -51 -62 -54 -53 -4 -53 -3 -67 110 -6
40 -14 96 -20 123 -6 28 -13 67 -16 88 -4 20 -10 37 -15 37 -4 0 -19 -35 -32
-77z"/>
<path d="M2056 6855 c-4 -24 -14 -58 -23 -75 -19 -38 -12 -95 17 -142 30 -49
26 -82 -16 -128 -29 -31 -43 -40 -70 -40 -18 0 -36 5 -39 10 -10 16 -35 12
-35 -6 0 -9 10 -29 21 -46 19 -26 20 -33 8 -54 -19 -37 -1 -74 52 -106 39 -25
49 -27 76 -18 41 15 89 91 95 151 3 26 13 61 22 79 9 18 16 48 16 65 0 23 7
37 23 48 21 14 21 15 5 34 -20 21 -24 58 -8 68 16 10 12 22 -9 28 -12 3 -21
18 -25 43 -9 48 -65 133 -87 134 -12 0 -19 -13 -23 -45z"/>
<path d="M3431 5756 c-16 -19 -21 -79 -26 -296 -2 -102 -9 -295 -15 -430 -7
-135 -13 -301 -15 -370 -2 -69 -6 -177 -10 -240 -3 -63 -6 -182 -8 -264 -2
-131 0 -150 15 -159 11 -8 26 -8 43 -2 30 12 26 -52 45 660 9 373 17 575 37
972 4 83 2 117 -7 128 -16 19 -44 19 -59 1z"/>
<path d="M6201 5747 c-8 -10 -6 -141 8 -493 19 -457 37 -1151 33 -1223 -3 -42
12 -61 49 -61 54 0 54 -5 28 560 -6 151 -13 343 -14 425 -5 366 -24 776 -35
791 -16 18 -54 18 -69 1z"/>
<path d="M1766 5471 c-3 -4 6 -19 20 -32 14 -13 34 -40 44 -60 10 -20 38 -51
63 -69 24 -19 79 -83 123 -143 43 -60 94 -127 111 -150 62 -80 103 -144 103
-161 0 -21 -33 -21 -51 0 -19 24 -114 82 -162 101 -23 8 -60 24 -82 33 -22 10
-68 21 -101 25 -94 10 -90 -6 24 -122 128 -130 179 -187 197 -223 8 -16 24
-34 35 -40 22 -12 136 -152 162 -198 9 -17 36 -41 59 -53 48 -24 73 -41 166
-111 34 -27 67 -48 73 -48 22 0 171 -171 231 -265 26 -40 52 -75 58 -79 18
-12 13 48 -9 106 -27 72 -27 100 2 96 12 -2 28 -13 34 -25 6 -13 18 -31 26
-40 9 -10 30 -49 48 -88 17 -38 40 -88 51 -111 10 -22 19 -45 19 -50 0 -6 11
-25 25 -44 14 -19 25 -44 25 -56 0 -12 7 -27 15 -34 8 -7 15 -22 15 -34 0 -11
9 -34 20 -51 11 -16 20 -44 20 -61 0 -17 7 -37 15 -44 8 -7 17 -28 21 -49 4
-20 10 -41 15 -46 4 -6 12 -29 18 -50 13 -57 30 -104 52 -147 10 -20 19 -45
19 -56 0 -10 7 -27 15 -38 8 -10 15 -29 15 -41 0 -13 9 -37 20 -55 11 -18 20
-44 20 -56 0 -13 9 -35 20 -49 11 -14 20 -31 20 -39 0 -7 7 -25 15 -41 7 -15
24 -50 35 -78 12 -27 26 -57 31 -65 5 -8 12 -22 15 -30 3 -8 9 -22 14 -30 5
-8 28 -53 50 -99 23 -45 56 -106 74 -135 19 -28 46 -73 60 -101 15 -27 40 -66
54 -86 15 -20 43 -58 62 -85 19 -27 40 -55 47 -62 7 -8 25 -30 40 -50 42 -57
76 -92 89 -92 23 0 -5 56 -47 93 -21 20 -39 42 -39 50 0 13 -24 54 -89 152
-53 79 -152 296 -171 373 -5 19 -16 42 -24 51 -9 10 -18 33 -21 51 -2 18 -12
41 -21 52 -12 12 -19 37 -19 71 -1 29 -9 66 -18 82 -11 19 -17 53 -17 90 0 41
-7 74 -20 100 -15 29 -20 59 -20 116 0 41 -7 98 -15 125 -8 27 -15 74 -15 104
0 36 -7 70 -20 95 -14 28 -19 56 -18 93 1 32 -2 56 -9 60 -18 11 -32 55 -26
85 3 17 -2 35 -16 53 -14 18 -21 41 -21 69 0 25 -6 48 -14 54 -8 7 -18 31 -21
54 -4 23 -14 54 -21 69 -8 15 -14 37 -14 50 0 13 -7 32 -15 42 -8 11 -15 32
-15 47 0 14 -6 32 -13 38 -8 6 -27 43 -42 83 -16 40 -37 87 -47 103 -9 17 -34
62 -54 100 -19 39 -42 77 -50 86 -8 8 -14 21 -14 28 0 22 -104 207 -130 231
-9 8 -36 42 -60 75 -64 87 -245 290 -292 328 -22 17 -54 47 -71 66 -61 64
-225 201 -241 201 -22 0 -21 -34 2 -68 10 -15 50 -74 87 -132 38 -58 84 -127
102 -155 33 -51 53 -115 36 -115 -12 0 -35 23 -98 95 -117 135 -243 232 -419
325 -89 47 -138 61 -150 41z m636 -748 c52 -20 78 -41 78 -63 0 -9 15 -31 34
-49 26 -25 35 -44 40 -83 4 -28 16 -68 26 -88 19 -36 13 -60 -13 -60 -6 0 -15
-7 -22 -16 -16 -23 -48 -5 -81 47 -13 22 -32 43 -40 46 -17 6 -44 54 -44 78 0
9 -9 35 -20 57 -25 52 -27 148 -4 148 2 0 23 -7 46 -17z"/>
<path d="M7314 5284 c-91 -93 -180 -189 -196 -214 -17 -25 -41 -56 -54 -70
-24 -27 -151 -214 -196 -289 -30 -50 -77 -143 -103 -206 -10 -22 -35 -76 -56
-120 -38 -80 -66 -151 -76 -192 -3 -12 -14 -30 -24 -39 -11 -10 -19 -30 -19
-49 0 -17 -7 -40 -15 -51 -8 -10 -15 -32 -15 -49 0 -16 -7 -41 -15 -55 -8 -14
-15 -38 -15 -55 0 -16 -7 -41 -15 -55 -8 -14 -14 -41 -15 -61 0 -19 -7 -44
-15 -55 -8 -10 -15 -39 -15 -64 0 -25 -7 -54 -15 -64 -9 -12 -15 -42 -15 -72
0 -30 -8 -70 -19 -95 -14 -31 -18 -56 -14 -89 3 -27 -1 -76 -11 -118 -9 -39
-16 -100 -16 -135 0 -36 -7 -81 -15 -100 -8 -20 -15 -61 -15 -92 0 -31 -7 -72
-15 -92 -8 -19 -15 -57 -15 -83 0 -32 -6 -55 -20 -73 -11 -14 -20 -38 -20 -54
0 -16 -6 -37 -13 -48 -8 -11 -19 -38 -25 -60 -34 -128 -112 -306 -166 -383
-18 -26 -39 -65 -47 -87 -7 -22 -25 -53 -40 -70 -34 -39 -62 -93 -53 -106 9
-15 52 28 76 76 11 22 30 50 41 63 11 12 30 37 41 56 12 18 33 51 47 73 15 21
59 104 98 184 40 79 76 151 80 159 14 27 78 183 111 270 18 47 38 99 45 115 8
17 30 84 51 150 21 66 41 124 46 129 4 6 8 19 8 30 0 11 14 63 31 116 56 173
59 185 59 205 1 11 7 29 15 39 8 11 15 30 15 43 0 13 10 43 22 66 36 70 45 89
66 152 11 33 32 84 46 112 14 29 26 59 26 67 0 8 9 21 20 29 10 7 24 25 29 40
11 30 38 36 48 11 3 -8 -2 -32 -10 -52 -22 -50 -31 -108 -19 -116 12 -7 39 28
72 93 21 43 118 173 132 179 5 2 8 10 8 17 0 7 15 20 33 29 17 9 68 48 112 86
44 38 85 70 90 70 19 0 65 45 87 86 42 73 90 144 107 157 10 6 35 39 56 72 56
88 163 223 197 248 61 45 71 115 13 89 -14 -7 -35 -12 -45 -12 -44 0 -205 -88
-270 -148 -31 -28 -56 -25 -52 8 2 23 96 172 135 215 10 11 34 48 53 82 19 33
61 90 94 125 33 34 60 69 60 75 0 7 16 30 35 52 45 49 47 76 5 68 -32 -7 -169
-86 -210 -121 -14 -12 -44 -35 -67 -50 -52 -35 -169 -160 -233 -250 -34 -48
-54 -48 -45 2 4 20 12 44 19 52 7 8 26 40 43 70 16 30 55 97 87 148 57 94 73
141 48 149 -7 3 -86 -69 -178 -163z m60 -634 c-1 -25 -9 -65 -18 -90 -8 -25
-18 -56 -20 -70 -8 -39 -104 -160 -127 -160 -54 0 -73 39 -44 90 8 14 14 42
15 63 0 41 24 97 41 97 5 0 18 19 28 43 20 46 68 79 106 74 16 -2 19 -9 19
-47z"/>
<path d="M4660 4455 c-36 -6 -81 -18 -100 -27 -19 -8 -71 -32 -115 -52 -45
-20 -84 -36 -88 -36 -4 0 -26 -9 -50 -19 -23 -10 -73 -33 -112 -50 -47 -21
-83 -46 -110 -76 -50 -56 -104 -71 -303 -83 -124 -7 -146 -11 -170 -30 -15
-12 -42 -30 -59 -39 -45 -23 -41 -33 15 -34 26 0 202 -3 392 -6 190 -3 374 -6
410 -7 36 0 130 0 210 2 80 2 191 0 246 -3 86 -6 106 -4 127 10 23 14 35 15
99 6 150 -23 726 -38 789 -21 24 7 106 13 181 14 l138 1 -34 31 c-66 60 -103
77 -167 75 -71 -2 -178 22 -231 51 -21 12 -48 37 -59 55 -11 18 -26 34 -32 35
-7 1 -84 2 -172 2 -154 1 -163 2 -253 34 -115 40 -176 69 -267 126 -63 38 -79
44 -145 48 -41 2 -104 -1 -140 -7z"/>
<path d="M4915 3830 c-15 -24 32 -178 55 -181 3 0 53 -1 113 -3 117 -3 134 4
123 48 -6 23 -9 24 -75 21 -38 -2 -86 -7 -107 -11 -46 -8 -61 8 -70 77 -6 45
-26 70 -39 49z"/>
<path d="M5534 3755 c-3 -8 1 -24 10 -37 23 -32 21 -36 -20 -44 -19 -4 -38
-13 -41 -20 -7 -19 15 -44 38 -44 10 0 24 -7 31 -16 39 -48 60 -64 83 -64 14
0 86 -30 160 -66 112 -55 137 -64 150 -54 16 13 20 57 7 76 -11 17 -70 45 -74
35 -6 -17 -108 7 -139 33 -22 19 -42 26 -73 26 -23 0 -52 7 -64 16 -19 13 -22
22 -17 52 4 20 11 50 18 66 9 24 8 31 -8 42 -25 18 -54 18 -61 -1z"/>
<path d="M4790 3720 c-8 -5 -29 -10 -45 -10 -29 0 -129 -31 -167 -51 -10 -5
-21 -24 -26 -42 -5 -21 -18 -37 -37 -46 -26 -12 -33 -12 -59 3 -38 22 -56 7
-32 -28 9 -15 23 -26 32 -26 8 0 28 -7 45 -16 16 -8 38 -12 48 -9 17 5 61 61
86 110 13 24 67 41 158 50 72 7 90 21 70 54 -12 19 -52 25 -73 11z"/>
<path d="M4000 3646 c0 -21 111 -141 134 -145 25 -4 103 37 111 58 7 18 -26
65 -47 69 -11 2 -18 -8 -22 -32 -5 -27 -13 -37 -31 -42 -38 -9 -53 1 -65 45
-10 40 -33 61 -64 61 -9 0 -16 -6 -16 -14z"/>
<path d="M3945 3590 c-3 -5 4 -26 15 -47 11 -21 20 -43 20 -50 0 -22 -31 -31
-67 -20 -28 9 -36 8 -44 -4 -15 -24 -10 -39 21 -57 38 -22 38 -33 -2 -77 -25
-29 -29 -38 -18 -45 8 -5 22 -5 31 1 24 12 59 63 59 85 0 9 21 36 46 59 52 49
53 70 3 105 -16 12 -29 27 -29 35 0 16 -27 28 -35 15z"/>
<path d="M3666 3368 c-22 -31 -20 -60 5 -92 25 -32 22 -53 -12 -78 -23 -17
-30 -18 -50 -7 -13 7 -29 19 -35 27 -20 28 -25 -5 -7 -45 15 -31 24 -39 50
-41 18 -2 42 2 54 9 18 9 25 9 34 -5 17 -23 40 -20 58 8 12 18 14 40 10 100
l-6 76 -35 0 c-29 0 -33 3 -27 18 18 43 18 52 -3 52 -12 0 -28 -10 -36 -22z"/>
<path d="M5100 3339 c-24 -30 -27 -30 -70 -20 -115 27 -188 9 -272 -65 -35
-30 -77 -61 -93 -68 -53 -23 -83 -84 -57 -116 13 -15 38 -23 99 -32 98 -14
106 -10 123 65 18 76 41 97 106 97 62 0 97 -24 139 -95 14 -25 30 -45 35 -45
16 0 11 -66 -9 -112 -18 -42 -84 -136 -132 -188 -27 -29 -72 -97 -81 -121 -4
-9 -27 -47 -52 -83 -25 -37 -46 -71 -46 -76 0 -15 -95 -78 -138 -91 -24 -7
-52 -24 -63 -37 -22 -28 -25 -84 -6 -100 8 -7 116 -13 282 -16 149 -4 294 -9
322 -12 41 -5 59 -2 79 11 l27 17 -8 117 c-10 165 -32 185 -116 106 -53 -50
-95 -59 -137 -29 -22 15 -22 17 -7 41 18 27 17 30 -17 47 -41 21 -36 33 43
103 31 27 173 219 199 268 29 54 30 63 30 180 l0 123 -39 59 c-24 34 -56 68
-78 80 l-39 22 -24 -30z"/>
<path d="M5171 1881 c-26 -26 -26 -42 -2 -89 25 -48 58 -83 74 -77 14 6 22 0
65 -46 29 -32 31 -38 21 -66 -6 -18 -21 -39 -34 -47 -29 -19 -43 -79 -25 -101
8 -10 31 -15 67 -15 44 0 58 4 79 25 24 24 25 29 18 105 -5 66 -4 84 10 106
17 25 46 120 46 149 0 21 -41 55 -67 55 -34 0 -46 -31 -32 -85 13 -50 7 -78
-16 -73 -8 2 -38 34 -67 71 -29 38 -67 78 -85 88 -32 20 -32 20 -52 0z"/>
<path d="M5552 1843 c-6 -16 -12 -35 -15 -43 -8 -25 12 -269 23 -291 14 -25
34 -24 47 4 19 37 35 168 23 182 -5 6 -12 34 -16 61 -11 104 -14 114 -33 114
-11 0 -23 -11 -29 -27z"/>
<path d="M4752 1768 c-19 -19 -14 -46 18 -105 17 -30 30 -63 30 -74 0 -17 -6
-19 -66 -15 -65 5 -67 5 -88 43 -21 38 -49 51 -74 35 -16 -11 -22 -43 -11 -58
5 -6 12 -31 15 -55 5 -39 3 -47 -21 -71 -32 -32 -112 -52 -149 -38 -31 11 -42
49 -27 91 6 18 11 41 11 51 0 31 -41 18 -67 -21 -48 -71 -21 -187 50 -215 52
-21 166 -19 203 3 37 23 79 76 87 111 6 25 8 25 107 25 79 0 103 3 110 15 12
19 1 155 -16 195 -14 34 -71 95 -88 95 -7 0 -17 -5 -24 -12z"/>
<path d="M5071 1660 l-31 -39 28 -15 c26 -13 42 -36 57 -80 4 -15 -9 -33 -57
-78 -73 -69 -105 -81 -126 -50 -27 40 -82 20 -65 -23 8 -23 77 -55 117 -55 53
0 79 14 139 74 51 50 56 59 63 113 11 94 -25 192 -72 193 -12 0 -33 -16 -53
-40z"/>
<path d="M2770 9584 c0 -9 -9 -18 -20 -21 -11 -3 -20 -14 -20 -24 0 -20 35
-39 80 -43 14 -2 38 -15 53 -30 22 -22 35 -27 67 -25 28 2 46 -3 62 -16 13
-11 33 -26 45 -32 20 -12 24 -10 39 18 18 37 14 69 -18 140 -17 36 -28 49 -44
49 -12 0 -24 -7 -28 -15 -3 -8 -10 -15 -16 -15 -5 0 -10 7 -10 15 0 12 -17 15
-95 15 -80 0 -95 -2 -95 -16z"/>
<path d="M3270 9591 c0 -5 7 -14 15 -21 8 -7 15 -27 15 -45 0 -28 3 -32 23
-28 16 2 27 -5 42 -29 17 -27 32 -35 94 -52 l74 -20 27 34 c32 39 44 93 29
122 -6 11 -8 26 -5 34 4 11 -9 14 -72 14 -66 0 -79 -3 -90 -20 -7 -11 -16 -20
-21 -20 -5 0 -11 9 -14 20 -4 17 -14 20 -61 20 -31 0 -56 -4 -56 -9z"/>
<path d="M4100 9586 c0 -18 33 -30 59 -21 23 7 32 -5 46 -58 12 -47 27 -52 35
-11 11 49 19 56 59 52 20 -3 43 -2 51 2 35 17 89 30 124 30 31 0 45 -7 73 -37
20 -23 32 -45 29 -55 -3 -12 2 -18 14 -18 22 0 33 46 17 75 -6 11 -10 28 -8
38 2 16 -15 17 -248 17 -211 0 -251 -2 -251 -14z"/>
<path d="M7556 9538 c4 -35 8 -66 11 -70 2 -4 23 -13 46 -19 41 -11 67 -25 67
-38 0 -7 -37 -11 -103 -10 -58 0 -87 -8 -87 -26 0 -13 30 -25 67 -25 13 0 28
-9 35 -20 7 -11 18 -20 24 -20 12 0 24 -22 24 -45 0 -8 -9 -17 -20 -20 -25 -8
-27 -45 -2 -45 23 0 84 -18 102 -30 13 -9 13 -11 0 -20 -8 -6 -32 -15 -53 -21
-39 -10 -42 -22 -17 -68 4 -8 4 -26 -1 -40 -9 -22 1 -41 21 -41 26 0 47 58 24
67 -29 11 -12 21 59 32 39 6 82 14 95 17 19 5 23 2 28 -26 8 -37 37 -52 102
-55 35 -1 46 -6 56 -26 10 -21 18 -23 52 -20 21 3 57 5 79 5 37 1 40 -1 43
-29 4 -38 18 -53 34 -37 7 7 29 12 49 12 34 0 39 3 49 35 6 19 9 39 5 44 -16
27 82 45 132 25 30 -13 44 -14 72 -4 36 11 95 9 108 -3 3 -4 17 -7 29 -7 13 0
27 -6 31 -14 6 -9 41 -15 118 -19 140 -7 165 -3 165 30 0 16 -7 27 -19 30 -25
6 -34 29 -18 45 22 22 27 46 11 58 -22 19 -17 29 26 47 22 10 40 23 40 30 0
14 30 17 66 7 16 -4 20 -11 16 -30 -2 -13 -9 -24 -14 -24 -22 0 1 -25 28 -30
19 -3 30 -12 32 -25 2 -11 11 -26 20 -33 9 -7 17 -18 17 -25 1 -7 5 -25 9 -40
7 -22 4 -31 -13 -46 -14 -12 -21 -30 -21 -55 0 -27 -3 -35 -12 -30 -9 5 -9 3
1 -9 7 -9 11 -26 8 -37 -11 -42 77 -97 108 -67 8 9 15 23 15 32 0 8 12 21 28
27 38 17 37 16 18 37 -23 25 -12 43 22 39 24 -3 28 1 32 32 4 29 9 35 30 35
16 0 28 -8 35 -22 5 -13 15 -23 22 -23 21 0 25 20 8 37 -13 13 -15 26 -10 62
4 25 10 50 15 55 14 14 38 -1 42 -26 2 -13 11 -24 22 -26 10 -2 16 0 12 6 -3
6 1 17 9 25 13 13 15 57 15 276 l0 261 -960 0 c-953 0 -960 0 -960 -20 0 -11
-7 -20 -15 -20 -8 0 -15 9 -15 20 0 17 -7 20 -50 20 l-51 0 7 -62z"/>
<path d="M5560 9535 c0 -8 -7 -15 -15 -15 -8 0 -15 -3 -16 -7 0 -5 -3 -29 -5
-55 -3 -27 0 -56 7 -70 9 -17 9 -23 0 -26 -7 -2 -26 -17 -42 -33 -57 -56 -78
-22 -23 38 27 29 29 42 12 65 -16 20 -74 14 -108 -12 -21 -16 -23 -21 -13 -43
7 -14 21 -28 32 -32 17 -5 20 -12 14 -33 -3 -15 -10 -28 -15 -30 -17 -7 -7
-33 17 -42 25 -9 29 -20 25 -72 -1 -22 3 -27 27 -30 21 -2 29 -9 31 -27 4 -23
2 -24 -38 -18 -35 4 -75 -4 -99 -20 -5 -3 -13 -100 -13 -176 -1 -51 3 -73 16
-85 25 -26 45 2 52 76 8 69 22 85 20 22 -1 -49 24 -81 48 -60 9 7 16 20 16 30
0 19 23 43 33 34 3 -3 11 4 17 16 9 17 8 25 -4 39 -18 20 -21 47 -6 56 13 8
13 61 0 86 -10 17 -7 20 19 25 20 4 28 11 24 20 -3 8 2 17 11 20 10 4 16 18
16 35 0 28 -12 36 -44 30 -6 -1 -20 0 -33 4 -25 6 -32 35 -8 35 23 0 56 41 49
62 -4 15 0 18 30 18 19 0 37 -4 40 -9 9 -14 55 -19 59 -7 7 19 -14 66 -29 66
-17 0 -30 25 -37 73 -3 22 -11 45 -18 53 -15 19 -49 18 -49 -1z"/>
<path d="M3643 9123 c-7 -2 -9 -11 -7 -18 10 -25 -4 -34 -34 -23 -21 8 -34 7
-53 -3 l-26 -14 16 -50 c18 -55 15 -54 109 -37 61 11 73 19 52 36 -23 18 -43
58 -33 65 5 3 12 13 16 23 6 17 -17 29 -40 21z"/>
<path d="M9070 9069 c-24 -9 -50 -48 -50 -75 0 -7 8 -15 18 -18 15 -5 18 -17
18 -71 -1 -53 -4 -64 -16 -61 -57 16 -78 16 -94 1 -19 -19 -19 -25 -6 -60 8
-21 16 -26 37 -23 20 2 29 11 38 38 10 30 16 35 38 32 15 -2 27 1 27 6 0 5 11
14 25 20 21 10 25 19 25 53 0 46 -31 99 -58 100 -9 0 -12 2 -7 4 88 26 96 30
93 44 -4 19 -51 24 -88 10z"/>
<path d="M579 8584 c-5 -6 -4 -26 2 -47 8 -29 15 -37 33 -37 14 0 28 -10 36
-25 18 -33 35 -32 57 5 9 17 21 30 26 30 12 0 4 51 -8 51 -5 0 -18 8 -29 17
-21 19 -102 23 -117 6z"/>
<path d="M8747 7793 c-10 -12 -13 -29 -10 -53 14 -88 12 -95 -32 -100 -26 -3
-40 -10 -40 -20 0 -9 15 -18 40 -23 22 -4 52 -10 68 -14 27 -5 36 -18 17 -25
-7 -2 -6 -13 2 -30 16 -35 47 -36 72 -2 20 28 32 104 16 104 -6 0 -10 -6 -10
-14 0 -8 -7 -16 -15 -20 -26 -10 -45 5 -47 38 -2 41 -6 114 -7 149 -1 32 -29
37 -54 10z"/>
<path d="M9538 7522 c-8 -21 -20 -32 -40 -36 -33 -6 -43 -25 -34 -61 4 -15 13
-25 25 -25 24 0 45 -25 37 -45 -3 -9 -16 -15 -33 -14 -28 2 -87 -24 -78 -33 3
-2 6 -23 7 -46 1 -39 3 -42 30 -42 18 0 31 -6 35 -17 13 -36 23 -42 54 -31 22
7 33 7 45 -3 14 -11 15 6 12 170 -3 178 -4 184 -26 199 -22 14 -23 13 -34 -16z"/>
<path d="M0 7430 c0 -121 6 -132 60 -121 30 6 35 12 42 46 7 30 5 42 -6 50 -8
5 -24 17 -36 25 -56 38 -55 37 -42 53 7 8 24 18 37 21 14 4 25 11 25 16 0 10
-5 12 -52 15 l-28 2 0 -107z"/>
<path d="M9043 7364 c3 -4 -11 -20 -33 -35 -22 -16 -37 -34 -35 -41 26 -75 26
-74 40 -54 9 11 20 16 30 12 9 -3 25 -1 37 5 15 8 24 7 38 -6 11 -10 26 -15
34 -12 21 8 8 47 -21 60 -13 6 -31 26 -38 44 -10 23 -21 33 -36 33 -12 0 -19
-3 -16 -6z"/>
<path d="M337 7326 c-12 -32 -56 -48 -127 -49 -81 0 -96 -10 -80 -53 11 -29 4
-104 -9 -104 -4 0 -14 -11 -21 -25 -7 -13 -16 -22 -20 -20 -4 2 -16 -3 -28
-11 -17 -12 -22 -25 -22 -58 0 -30 -5 -46 -15 -50 -10 -4 -15 -19 -14 -48 1
-24 3 -34 6 -23 2 11 6 30 9 43 5 25 26 28 64 9 20 -10 26 -22 30 -57 4 -38 9
-46 33 -55 26 -8 31 -6 49 18 11 15 26 27 34 27 8 0 14 6 14 13 0 23 37 49 67
46 52 -4 63 0 63 24 0 31 10 42 49 55 34 12 60 37 61 60 0 19 38 52 60 52 13
0 20 -7 20 -20 0 -11 6 -20 14 -20 10 0 15 20 19 78 2 42 8 87 12 98 9 28 -11
33 -95 24 -63 -7 -66 -6 -107 26 -46 37 -58 41 -66 20z"/>
<path d="M383 4503 c-13 -39 -45 -103 -52 -103 -4 0 -14 -22 -21 -50 -7 -27
-18 -50 -22 -50 -5 0 -7 -9 -3 -20 5 -15 0 -23 -22 -32 -30 -14 -82 -67 -83
-84 0 -6 7 -17 15 -24 12 -10 20 -9 40 4 30 20 65 7 65 -24 0 -11 9 -25 20
-32 13 -8 20 -24 20 -42 0 -23 3 -27 12 -18 8 8 8 18 1 34 -12 28 11 78 37 78
27 0 42 24 32 51 -13 37 -4 56 28 61 40 6 46 0 55 -49 8 -52 23 -54 53 -7 31
48 26 69 -18 69 -44 0 -55 30 -16 45 24 9 26 14 26 68 0 50 -5 66 -30 100 -33
46 -49 52 -57 22 -3 -11 -9 -20 -13 -20 -4 0 -10 9 -13 20 -6 25 -45 27 -54 3z"/>
<path d="M199 4108 c-3 -6 -10 -82 -12 -132 -2 -55 -27 -79 -27 -26 0 44 -25
87 -54 92 -21 4 -28 -1 -41 -27 -22 -49 -20 -95 5 -95 11 0 25 -9 32 -20 13
-21 48 -28 48 -10 0 6 6 10 14 10 8 0 17 -15 20 -34 7 -35 32 -54 49 -37 5 5
12 33 15 62 6 42 11 53 27 55 11 1 35 5 53 9 28 7 32 5 32 -14 0 -11 -3 -21
-8 -21 -4 0 -12 -10 -17 -22 -6 -15 -19 -23 -35 -23 -22 -1 -25 -5 -23 -33 2
-52 12 -82 27 -82 18 0 26 22 26 70 0 47 7 52 53 38 29 -9 37 -16 37 -35 0
-13 7 -26 15 -29 19 -8 45 13 45 36 0 53 84 -2 114 -75 8 -19 22 -38 31 -41
11 -5 15 -22 15 -69 l0 -63 -34 -6 c-19 -4 -53 -3 -76 0 -43 7 -43 7 -36 -20
5 -22 1 -33 -23 -56 -16 -17 -34 -30 -40 -30 -6 0 -11 -9 -11 -21 0 -12 -11
-30 -25 -41 -31 -24 -31 -37 -4 -72 14 -17 29 -26 43 -24 21 3 22 10 14 63 -2
16 3 21 30 23 29 3 32 1 32 -26 0 -16 9 -37 19 -46 16 -15 23 -16 43 -6 40 22
58 42 58 70 0 14 5 31 12 38 7 7 9 12 5 12 -4 0 -3 9 3 20 15 28 25 25 50 -17
l22 -37 14 24 c19 36 17 48 -13 76 -31 29 -39 84 -22 149 7 30 6 51 -4 86 -21
69 -10 89 53 89 l51 0 -16 30 c-9 17 -22 30 -30 30 -8 0 -15 5 -15 10 0 20
-29 9 -32 -12 -2 -17 -10 -23 -28 -23 -23 0 -25 3 -25 50 0 44 -3 50 -22 53
-21 3 -23 -1 -23 -43 0 -55 -18 -66 -66 -40 -24 13 -34 25 -34 41 0 13 -9 28
-19 33 -16 9 -20 6 -25 -15 -8 -30 -30 -27 -34 4 -3 17 -10 22 -36 22 -17 0
-37 5 -43 11 -7 7 -19 8 -30 4 -23 -11 -63 -13 -63 -4 0 4 9 9 20 12 29 7 25
25 -6 29 -20 2 -29 11 -38 37 -9 29 -32 52 -37 39z"/>
<path d="M261 3443 c-15 -10 -19 -21 -15 -37 3 -14 -2 -31 -15 -48 -25 -31
-26 -51 -6 -68 11 -9 15 -32 15 -80 0 -73 16 -104 44 -81 8 6 18 11 22 9 5 -1
18 1 30 5 34 12 60 87 31 87 -39 0 -58 78 -36 141 21 55 -26 103 -70 72z"/>
<path d="M230 3021 c-36 -10 -41 -72 -8 -95 l22 -16 -20 -14 c-32 -23 -21 -72
17 -80 16 -3 36 -3 44 0 13 6 15 -4 12 -66 -3 -57 0 -76 14 -93 16 -20 20 -21
63 -9 26 6 59 12 75 12 43 0 59 26 57 95 -1 49 -4 60 -18 60 -9 0 -20 4 -24 8
-4 4 -15 7 -25 7 -18 0 -33 46 -18 56 17 10 9 34 -11 34 -11 0 -27 11 -36 25
-9 14 -27 28 -40 31 -12 3 -30 17 -39 30 -16 25 -23 27 -65 15z"/>
<path d="M1077 2414 c-4 -4 -7 -15 -7 -25 0 -9 -11 -24 -25 -33 -14 -9 -25
-26 -25 -37 0 -12 -8 -23 -20 -26 -36 -9 -25 -50 19 -72 56 -29 65 -62 30
-110 -12 -16 -19 -37 -16 -47 4 -15 5 -15 6 4 1 19 5 22 22 17 11 -4 33 -2 49
5 27 11 27 12 12 43 -15 29 -14 31 6 45 31 20 30 74 0 87 -21 9 -23 18 -24 80
-1 64 -10 86 -27 69z"/>
<path d="M194 1628 c-14 -22 -8 -96 9 -113 10 -9 17 -21 17 -26 0 -23 -22 -49
-40 -49 -23 0 -67 -61 -76 -107 -3 -17 -12 -34 -20 -37 -22 -9 -16 -46 11 -67
21 -17 23 -24 14 -47 -16 -40 -3 -69 35 -83 30 -11 32 -14 19 -27 -8 -9 -12
-24 -9 -36 3 -12 6 -26 6 -33 0 -8 11 -10 35 -6 28 5 38 1 54 -18 16 -20 21
-22 35 -10 20 17 33 6 38 -29 3 -27 11 -28 88 -14 31 5 38 12 60 60 21 48 28
55 49 52 21 -2 27 -10 34 -45 8 -40 30 -62 42 -43 4 6 26 10 50 10 34 0 47 5
55 20 17 33 38 24 42 -17 5 -60 25 -50 37 18 10 59 9 65 -14 105 -16 27 -25
58 -25 84 0 51 -16 58 -72 31 -36 -17 -57 -20 -135 -16 -92 4 -92 4 -113 -24
-11 -16 -20 -36 -20 -45 0 -27 -31 -32 -51 -8 -9 12 -24 20 -32 17 -22 -9 -41
46 -33 98 6 39 10 43 47 55 22 7 56 10 75 6 30 -5 35 -3 44 20 7 21 6 33 -6
50 -23 36 -74 43 -74 10 0 -8 -4 -14 -10 -14 -5 0 -7 6 -4 14 3 9 -3 17 -15
21 -39 12 -25 35 22 35 33 1 46 6 60 25 17 24 17 25 -15 38 -18 8 -46 33 -63
55 -16 23 -35 42 -42 42 -7 0 -28 14 -46 30 -37 32 -52 37 -63 18z"/>
<path d="M9540 1300 c0 -24 -4 -30 -17 -28 -25 4 -41 -62 -37 -150 5 -98 24
-133 54 -97 8 9 21 13 36 9 23 -6 24 -4 24 39 0 27 -6 49 -15 57 -13 11 -13
16 2 41 15 25 15 33 4 65 -10 28 -10 38 -1 44 9 5 7 13 -6 29 -26 30 -44 26
-44 -9z"/>
<path d="M9390 1235 c-7 -9 -21 -13 -31 -10 -20 7 -26 -9 -9 -20 6 -3 10 -21
10 -40 0 -37 -12 -45 -68 -45 -49 -1 -77 -22 -63 -48 17 -31 33 -39 96 -46
l60 -6 20 47 c11 27 18 56 17 65 -2 9 6 22 17 28 24 12 27 46 7 73 -16 21 -39
22 -56 2z"/>
<path d="M191 522 c-6 -11 -6 -24 1 -36 15 -27 -1 -34 -22 -8 -20 24 -40 28
-57 11 -8 -8 -13 -8 -18 0 -10 17 -35 -13 -35 -41 0 -13 -5 -29 -12 -36 -8 -8
-8 -15 2 -26 7 -9 16 -13 21 -10 5 3 9 -4 9 -15 0 -12 -6 -20 -13 -18 -8 1
-11 -10 -10 -37 2 -22 -2 -45 -8 -53 -9 -10 -8 -13 5 -13 9 0 16 -4 16 -9 0
-15 57 -71 73 -71 9 0 17 -3 20 -7 2 -5 2 -2 1 4 -2 7 10 23 26 35 24 17 30
29 30 59 0 56 -8 69 -44 69 -17 0 -38 6 -46 13 -23 18 -52 66 -46 76 6 10 92
35 120 36 13 0 20 8 21 23 1 13 7 27 14 31 10 6 9 12 -4 25 -21 21 -32 20 -44
-2z"/>
</g>
</svg>
